<?xml version="1.0" encoding="UTF-8" standalone="no"?>
<svg
   xmlns:dc="http://purl.org/dc/elements/1.1/"
   xmlns:cc="http://creativecommons.org/ns#"
   xmlns:rdf="http://www.w3.org/1999/02/22-rdf-syntax-ns#"
   xmlns:svg="http://www.w3.org/2000/svg"
   xmlns="http://www.w3.org/2000/svg"
   xmlns:sodipodi="http://sodipodi.sourceforge.net/DTD/sodipodi-0.dtd"
   xmlns:inkscape="http://www.inkscape.org/namespaces/inkscape"
   viewBox="0 0 497.78836 222.436"
   height="222.436"
   width="497.78836"
   xml:space="preserve"
   id="svg2"
   version="1.1"
   inkscape:version="0.91 r13725"
   sodipodi:docname="mxmariner_logo.svg"
   inkscape:export-filename="/Users/williamkamp/code/mxmi/mxmariner.com/mxm/site/images/mxmariner_logo.png"
   inkscape:export-xdpi="77.685265"
   inkscape:export-ydpi="77.685265"><sodipodi:namedview
     pagecolor="#000000"
     bordercolor="#666666"
     borderopacity="1"
     objecttolerance="10"
     gridtolerance="10"
     guidetolerance="10"
     inkscape:pageopacity="0"
     inkscape:pageshadow="2"
     inkscape:window-width="1280"
     inkscape:window-height="756"
     id="namedview3424"
     showgrid="false"
     inkscape:zoom="0.95186167"
     inkscape:cx="191.05858"
     inkscape:cy="80.140936"
     inkscape:window-x="4"
     inkscape:window-y="23"
     inkscape:window-maximized="0"
     inkscape:current-layer="svg2"
     fit-margin-top="2"
     fit-margin-left="2"
     fit-margin-right="2"
     fit-margin-bottom="2" /><metadata
     id="metadata8"><rdf:RDF><cc:Work
         rdf:about=""><dc:format>image/svg+xml</dc:format><dc:type
           rdf:resource="http://purl.org/dc/dcmitype/StillImage" /><dc:title></dc:title></cc:Work></rdf:RDF></metadata><defs
     id="defs6" /><path
     id="path14"
     style="fill:#ffffff;fill-opacity:1;fill-rule:evenodd;stroke:none"
     d="M 70.61071,187.1712 C 114.66537,138.41066 81.36537,62.237335 51.68671,8.923995 L 47.61871,2 c 37.68666,54.045335 75.70533,129.48133 33.544,185.4164 48.49866,-2.47546 68.60933,6.7496 98.62666,-24.20839 -13.27333,51.52773 -60.02133,38.87252 -107.71466,34.68866 l -0.11867,0.12294 -0.0747,-0.1396 C 47.352,195.73986 22.584,195.86386 2,208.14093 11.09067,192.97426 24.03467,187.8388 38.41734,187.2972 43.364,186.756 48.68267,186.59506 54.064,186.63213 28.16267,171.78933 10.73467,144.056 10.73467,112.28666 10.73467,77.720005 31.36534,47.929335 61.09734,34.325335 81.564,80.548005 102.75867,154.096 61.232,186.78106 c 3.172,0.10307 6.32,0.24534 9.37867,0.39014 z M 5.27604,215.6248 c 40.888,-22.4708 124.58667,28.68173 153.584,-10.47187 -40.55733,20.53587 -126.492,-23.376 -153.584,10.47187 z M 97.40271,26.447995 c 47.86533,0 86.668,38.43201 86.668,85.838665 0,22.68134 -8.88534,43.30534 -23.39334,58.652 -7.13066,-25.68133 -39.83733,-82.693325 -89.22933,-140.573325 8.19467,-2.544 16.911997,-3.91734 25.95467,-3.91734"
     inkscape:connector-curvature="0" /><g
     transform="matrix(1.4741565,0,0,1.4741565,252.36773,-608.32903)"
     id="layer1"
     style="fill:#ffffff;fill-opacity:1"><g
       transform="translate(-50.829232,13.637059)"
       id="text3340"
       style="font-style:normal;font-weight:normal;font-size:40px;line-height:125%;font-family:Sans;letter-spacing:0px;word-spacing:0px;fill:#ffffff;fill-opacity:1;stroke:none;stroke-width:1px;stroke-linecap:butt;stroke-linejoin:miter;stroke-opacity:1"><path
         id="path3346"
         style="font-style:normal;font-variant:normal;font-weight:normal;font-stretch:normal;font-family:Optima;-inkscape-font-specification:Optima;fill:#ffffff;fill-opacity:1"
         d="m 16.393342,520.15904 -0.68,0 q -0.32,3.2 -0.76,6.76 -0.44,3.52 -0.96,7.16 -0.52,3.64 -1.08,7.24 -0.56,3.6 -1.08,6.84 0.64,-0.08 1.4,-0.08 0.76,0 1.4,0.08 0,-1.6 0.2,-4.08 0.2,-2.52 0.48,-5.32 0.28,-2.84 0.6,-5.72 0.36,-2.92 0.64,-5.4 l 0.08,0 q 2.64,5.28 5.24,10.36 2.64,5.04 5.04,10.08 l 0.36,0 q 2.4,-5.44 5.04,-10.4 2.68,-5 5.44,-10.04 l 0.08,0 q 0.64,5.2 1.08,10.2 0.44,5 0.88,10.32 0.48,-0.08 0.92,-0.08 0.48,0 0.96,0 0.48,0 0.92,0 0.48,0 0.96,0.08 -0.48,-3.32 -0.88,-6.68 -0.4,-3.4 -0.8,-6.84 -0.4,-3.48 -0.8,-7.04 -0.36,-3.6 -0.8,-7.44 l -0.52,0 q -1,1.84 -2.16,3.96 -1.16,2.12 -2.36,4.32 -1.16,2.2 -2.32,4.36 -1.12,2.12 -2.12,3.96 -1,1.84 -1.76,3.28 -0.76,1.4 -1.16,2.16 -3.08,-5.64 -5.92,-11 -2.8,-5.36 -5.56,-11.04 z"
         inkscape:connector-curvature="0" /><path
         id="path3348"
         style="font-style:normal;font-variant:normal;font-weight:normal;font-stretch:normal;font-family:Optima;-inkscape-font-specification:Optima;fill:#ffffff;fill-opacity:1"
         d="m 58.220217,531.63904 q -1.84,-3.04 -3.36,-5.64 -1.52,-2.64 -2.84,-5.32 -0.56,0.08 -1.08,0.16 -0.52,0.04 -1.08,0.04 -0.56,0 -1.08,-0.04 -0.52,-0.08 -1.08,-0.16 2.2,3.52 4.28,6.92 2.12,3.4 4.2,6.92 -2.28,3.52 -4.56,6.92 -2.28,3.4 -4.68,6.72 0.4,-0.08 0.76,-0.08 0.4,0 0.72,0 0.32,0 0.68,0 0.4,0 0.8,0.08 1.68,-2.92 3.44,-5.92 1.76,-3.04 3.8,-6.08 2.04,3.04 3.6,6.08 1.6,3 3.2,5.92 0.56,-0.08 1.12,-0.08 0.56,0 1.12,0 0.56,0 1.12,0 0.56,0 1.12,0.08 -2.4,-3.68 -4.72,-7.4 -2.28,-3.72 -4.56,-7.6 2.04,-3.24 4.24,-6.28 2.2,-3.04 4.48,-6.2 -0.88,0.2 -1.48,0.2 -0.6,0 -1.48,-0.2 -1.68,3.08 -3.28,5.68 -1.56,2.56 -3.4,5.28 z"
         inkscape:connector-curvature="0" /><path
         id="path3350"
         style="font-style:normal;font-variant:normal;font-weight:normal;font-stretch:normal;font-family:Optima;-inkscape-font-specification:Optima;fill:#ffffff;fill-opacity:1"
         d="m 87.487092,520.15904 -0.68,0 q -0.32,3.2 -0.76,6.76 -0.44,3.52 -0.96,7.16 -0.52,3.64 -1.08,7.24 -0.56,3.6 -1.08,6.84 0.64,-0.08 1.4,-0.08 0.76,0 1.4,0.08 0,-1.6 0.2,-4.08 0.2,-2.52 0.48,-5.32 0.28,-2.84 0.6,-5.72 0.36,-2.92 0.64,-5.4 l 0.08,0 q 2.64,5.28 5.24,10.36 2.64,5.04 5.04,10.08 l 0.36,0 q 2.399998,-5.44 5.039998,-10.4 2.68,-5 5.44,-10.04 l 0.08,0 q 0.64,5.2 1.08,10.2 0.44,5 0.88,10.32 0.48,-0.08 0.92,-0.08 0.48,0 0.96,0 0.48,0 0.92,0 0.48,0 0.96,0.08 -0.48,-3.32 -0.88,-6.68 -0.4,-3.4 -0.8,-6.84 -0.4,-3.48 -0.8,-7.04 -0.36,-3.6 -0.8,-7.44 l -0.52,0 q -1,1.84 -2.16,3.96 -1.16,2.12 -2.36,4.32 -1.16,2.2 -2.32,4.36 -1.12,2.12 -2.12,3.96 -1,1.84 -1.76,3.28 -0.759998,1.4 -1.159998,2.16 -3.08,-5.64 -5.92,-11 -2.8,-5.36 -5.56,-11.04 z"
         inkscape:connector-curvature="0" /><path
         id="path3352"
         style="font-style:normal;font-variant:normal;font-weight:normal;font-stretch:normal;font-family:Optima;-inkscape-font-specification:Optima;fill:#ffffff;fill-opacity:1"
         d="m 129.87397,538.19904 -0.16,6 q -0.68,1.12 -1.96,1.96 -1.24,0.84 -2.76,0.84 -1.32,0 -2.4,-0.96 -1.08,-0.96 -1.08,-2.84 0,-1.12 0.4,-1.84 0.44,-0.72 1.12,-1.2 0.72,-0.48 1.6,-0.76 0.92,-0.28 1.84,-0.44 0.92,-0.2 1.8,-0.36 0.92,-0.16 1.6,-0.4 z m -9.88,-7.12 0,2.08 0.44,0 q 0.68,-1.28 2.04,-2 1.4,-0.72 3,-0.72 1.2,0 2.04,0.44 0.84,0.4 1.36,1.08 0.52,0.68 0.76,1.6 0.24,0.92 0.24,1.92 0,0.6 -0.12,1 -0.12,0.36 -0.72,0.64 -0.56,0.28 -1.8,0.56 -1.2,0.24 -3.36,0.6 -2.64,0.44 -4.16,1.76 -1.48,1.32 -1.48,3.72 0,1.16 0.44,2.08 0.48,0.88 1.2,1.52 0.76,0.64 1.72,0.92 0.96,0.28 1.96,0.28 2.04,0 3.44,-0.68 1.4,-0.68 2.84,-2.12 0.12,1.04 0.8,1.72 0.68,0.64 1.96,0.64 0.8,0 1.44,-0.12 0.68,-0.12 1.12,-0.32 l 0,-0.88 q -0.2,0.12 -0.44,0.16 -0.2,0 -0.4,0 -0.6,0 -0.92,-0.28 -0.28,-0.28 -0.44,-0.68 -0.16,-0.44 -0.2,-0.96 0,-0.56 0,-1.04 0,-2.52 0.08,-4.76 0.08,-2.28 0.08,-4.56 0,-1.32 -0.48,-2.4 -0.48,-1.12 -1.32,-1.88 -0.84,-0.8 -2.04,-1.2 -1.2,-0.44 -2.64,-0.44 -1.6,0 -3.12,0.48 -1.52,0.48 -3.32,1.84 z"
         inkscape:connector-curvature="0" /><path
         id="path3354"
         style="font-style:normal;font-variant:normal;font-weight:normal;font-stretch:normal;font-family:Optima;-inkscape-font-specification:Optima;fill:#ffffff;fill-opacity:1"
         d="m 148.75397,532.43904 0.28,-0.2 q 0,-0.8 0.04,-1.76 0.04,-1 0.24,-1.48 -0.4,-0.16 -0.68,-0.2 -0.24,-0.04 -0.6,-0.04 -2.92,0 -5.28,4.32 l -0.08,-0.04 q 0,-0.76 0,-1.6 0.04,-0.84 0.2,-2.28 -0.44,0.08 -0.84,0.16 -0.4,0.04 -0.76,0.04 -0.44,0 -0.84,-0.04 -0.4,-0.08 -0.84,-0.16 0.12,2.64 0.12,4.68 0.04,2.04 0.04,3.6 l 0,1.28 q 0,3.4 -0.04,5.76 0,2.32 -0.12,3.68 0.8,-0.08 1.68,-0.08 0.8,0 1.6,0.08 -0.12,-0.88 -0.16,-2.28 0,-1.44 0,-4.12 l 0,-4.4 q 0,-1.16 0.28,-2.16 0.28,-1.04 0.8,-1.76 0.52,-0.76 1.28,-1.2 0.76,-0.44 1.72,-0.44 0.6,0 1.16,0.2 0.6,0.2 0.8,0.44 z"
         inkscape:connector-curvature="0" /><path
         id="path3356"
         style="font-style:normal;font-variant:normal;font-weight:normal;font-stretch:normal;font-family:Optima;-inkscape-font-specification:Optima;fill:#ffffff;fill-opacity:1"
         d="m 153.35522,522.19904 q 0,0.84 0.6,1.44 0.6,0.6 1.44,0.6 0.84,0 1.44,-0.6 0.6,-0.6 0.6,-1.44 0,-0.84 -0.6,-1.44 -0.6,-0.6 -1.44,-0.6 -0.84,0 -1.44,0.6 -0.6,0.6 -0.6,1.44 z m 0.56,14.44 0,4.16 q 0,1.8 -0.08,3.8 -0.04,1.96 -0.24,3.56 0.92,-0.08 1.8,-0.08 0.88,0 1.8,0.08 -0.2,-1.6 -0.28,-3.56 -0.04,-2 -0.04,-3.8 l 0,-4.16 q 0,-1.8 0.04,-3.76 0.08,-2 0.28,-3.72 -1.12,0.2 -1.8,0.2 -0.68,0 -1.8,-0.2 0.2,1.72 0.24,3.72 0.08,1.96 0.08,3.76 z"
         inkscape:connector-curvature="0" /><path
         id="path3358"
         style="font-style:normal;font-variant:normal;font-weight:normal;font-stretch:normal;font-family:Optima;-inkscape-font-specification:Optima;fill:#ffffff;fill-opacity:1"
         d="m 177.00897,536.91904 0,2.44 q 0,2.32 -0.12,4.52 -0.08,2.2 -0.16,4.28 0.8,-0.08 1.64,-0.08 0.88,0 1.68,0.08 -0.04,-0.56 -0.08,-1.16 0,-0.64 0,-1.28 l 0,-2.6 q 0,-2.04 0.08,-3.84 0.08,-1.84 0.08,-3.56 0,-2.08 -0.6,-3.4 -0.56,-1.36 -1.48,-2.12 -0.92,-0.8 -2.08,-1.12 -1.12,-0.32 -2.24,-0.32 -2.16,0 -3.72,0.96 -1.56,0.92 -2.68,2.64 l -0.08,0 q 0,-1.6 0.12,-3.2 -0.52,0.08 -0.92,0.16 -0.36,0.04 -0.68,0.04 -0.68,0 -1.8,-0.2 0.2,1.72 0.24,3.72 0.08,1.96 0.08,3.76 l 0,4.16 q 0,1.8 -0.08,3.8 -0.04,1.96 -0.24,3.56 0.92,-0.08 1.8,-0.08 0.88,0 1.8,0.08 -0.2,-1.6 -0.28,-3.56 -0.04,-2 -0.04,-3.8 l 0,-3.4 q 0,-3.12 1.28,-4.84 1.32,-1.72 4.12,-1.72 2.04,0 3.2,1.56 1.16,1.52 1.16,4.52 z"
         inkscape:connector-curvature="0" /><path
         id="path3360"
         style="font-style:normal;font-variant:normal;font-weight:normal;font-stretch:normal;font-family:Optima;-inkscape-font-specification:Optima;fill:#ffffff;fill-opacity:1"
         d="m 193.83459,530.03904 q 1.56,0 2.52,0.68 0.96,0.68 1.48,1.72 0.56,1.04 0.72,2.24 0.2,1.2 0.2,2.28 -1.28,0.04 -2.64,0.08 -1.36,0.04 -2.68,0.04 -1.28,0 -2.64,-0.04 -1.32,-0.04 -2.56,-0.08 0.08,-1.08 0.4,-2.28 0.36,-1.24 1,-2.24 0.68,-1.04 1.68,-1.72 1.04,-0.68 2.52,-0.68 z m -9.24,9.24 q 0,2 0.68,3.72 0.72,1.72 2,3 1.32,1.24 3.08,1.92 1.8,0.64 3.96,0.64 1.92,0 3.68,-0.68 1.8,-0.68 3,-1.64 l 0.24,-1.96 -0.2,-0.12 q -0.52,0.6 -1.24,1.12 -0.68,0.52 -1.48,0.92 -0.8,0.36 -1.64,0.6 -0.84,0.2 -1.64,0.2 -1.68,0 -2.96,-0.56 -1.28,-0.6 -2.16,-1.56 -0.88,-1 -1.36,-2.36 -0.44,-1.36 -0.44,-2.92 l 0,-0.52 q 0,-0.4 0.04,-0.6 1.32,-0.04 2.6,-0.08 1.32,-0.04 2.64,-0.04 2.16,0 4.28,0.04 2.12,0.04 4.28,0.08 0.04,-0.4 0.04,-0.76 0.04,-0.4 0.04,-0.8 0,-1.68 -0.52,-3.16 -0.48,-1.48 -1.52,-2.56 -1.04,-1.12 -2.6,-1.76 -1.52,-0.68 -3.64,-0.68 -4.48,0 -6.84,2.8 -2.32,2.8 -2.32,7.72 z"
         inkscape:connector-curvature="0" /><path
         id="path3362"
         style="font-style:normal;font-variant:normal;font-weight:normal;font-stretch:normal;font-family:Optima;-inkscape-font-specification:Optima;fill:#ffffff;fill-opacity:1"
         d="m 215.39459,532.43904 0.28,-0.2 q 0,-0.8 0.04,-1.76 0.04,-1 0.24,-1.48 -0.4,-0.16 -0.68,-0.2 -0.24,-0.04 -0.6,-0.04 -2.92,0 -5.28,4.32 l -0.08,-0.04 q 0,-0.76 0,-1.6 0.04,-0.84 0.2,-2.28 -0.44,0.08 -0.84,0.16 -0.4,0.04 -0.76,0.04 -0.44,0 -0.84,-0.04 -0.4,-0.08 -0.84,-0.16 0.12,2.64 0.12,4.68 0.04,2.04 0.04,3.6 l 0,1.28 q 0,3.4 -0.04,5.76 0,2.32 -0.12,3.68 0.8,-0.08 1.68,-0.08 0.8,0 1.6,0.08 -0.12,-0.88 -0.16,-2.28 0,-1.44 0,-4.12 l 0,-4.4 q 0,-1.16 0.28,-2.16 0.28,-1.04 0.8,-1.76 0.52,-0.76 1.28,-1.2 0.76,-0.44 1.72,-0.44 0.6,0 1.16,0.2 0.6,0.2 0.8,0.44 z"
         inkscape:connector-curvature="0" /></g></g></svg>